<svg width="1248" height="670" viewBox="0 0 1248 670" fill="none" xmlns="http://www.w3.org/2000/svg">
<path fill-rule="evenodd" clip-rule="evenodd" d="M148.388 353.01C147.89 352.446 147.093 352.253 146.393 352.528L65.9155 384.046C65.2153 384.32 64.7607 385.002 64.7771 385.755L65.6315 424.73C65.648 425.482 65.1934 426.165 64.4932 426.439L11.5278 447.183C10.3528 447.643 9.08345 446.776 9.08334 445.513L9.06458 212.523C9.06453 211.785 9.51653 211.122 10.2034 210.853L70.5062 187.236C71.1931 186.967 71.9745 187.146 72.475 187.689L230.443 358.819C231.3 359.746 230.955 361.246 229.78 361.706L176.183 382.697C175.483 382.971 174.686 382.778 174.188 382.215L148.388 353.01ZM116.165 319.83C117.325 319.376 117.679 317.906 116.855 316.973L64.9183 258.16C63.8105 256.906 61.7417 257.72 61.7849 259.394L63.8076 337.755C63.8397 338.998 65.0948 339.832 66.2515 339.379L116.165 319.83Z" fill="#222222"/>
<path d="M550.689 2.04015C550.875 0.68353 549.535 -0.373185 548.261 0.125792L491.455 22.3734C490.822 22.6216 490.383 23.2076 490.324 23.886L481.697 121.927C481.568 123.401 479.81 124.093 478.712 123.101L405.59 57.0665C405.086 56.6115 404.369 56.4805 403.737 56.7279L346.295 79.2244C345.021 79.7234 344.754 81.4099 345.811 82.2794L473.656 187.481C473.892 187.675 474.075 187.927 474.187 188.213L499.901 253.989C500.262 254.911 501.301 255.366 502.223 255.006L552.933 235.145C553.854 234.784 554.309 233.744 553.948 232.822L528.234 167.045C528.122 166.76 528.085 166.451 528.127 166.147L550.689 2.04015Z" fill="#222222"/>
<path d="M140.723 211.915C140.723 212.62 141.431 213.103 142.087 212.847L179.767 198.09C180.688 197.729 181.727 198.184 182.088 199.106L242.894 354.644C243.255 355.567 244.294 356.022 245.215 355.661L298.138 334.934C299.059 334.573 299.514 333.533 299.153 332.611L220.16 130.55C219.799 129.628 218.76 129.173 217.839 129.534L141.358 159.487C140.975 159.637 140.723 160.007 140.723 160.418V211.915Z" fill="#222222"/>
<path d="M52.7585 564.987C45.859 547.338 43.4821 530.491 45.6281 514.446C47.9826 498.319 54.3427 484.132 64.7085 471.885C75.2829 459.556 89.1225 450.043 106.227 443.344C128.13 434.766 148.563 433.196 167.526 438.635C186.052 443.811 201.473 455.118 213.787 472.557C214.45 473.496 214.046 474.802 212.975 475.221L159.279 496.251C158.581 496.524 157.788 496.33 157.275 495.783C147.574 485.447 136.034 482.898 122.657 488.137C112.853 491.977 106.497 498.794 103.591 508.587C100.605 518.177 101.809 529.87 107.202 543.664C112.595 557.459 119.679 566.965 128.454 572.183C137.149 577.199 146.399 577.787 156.203 573.947C169.581 568.708 176.328 558.997 176.444 544.816C176.45 544.066 176.901 543.385 177.599 543.111L231.286 522.085C232.359 521.665 233.544 522.354 233.689 523.498C236.311 544.278 232.616 562.952 222.604 579.521C212.235 596.681 196.204 609.509 174.51 618.006C157.405 624.705 140.79 627.118 124.664 625.247C108.747 623.293 94.4559 617.194 81.7915 606.949C69.3358 596.623 59.6582 582.635 52.7585 564.987Z" fill="#222222"/>
<path fill-rule="evenodd" clip-rule="evenodd" d="M353.944 547.731C336.839 554.43 320.015 556.926 303.472 555.217C287.138 553.428 272.43 547.492 259.348 537.41C246.475 527.247 236.589 513.341 229.69 495.693C222.869 478.247 220.845 461.379 223.617 445.088C226.309 428.595 233.151 414.103 244.143 401.611C255.134 389.119 269.182 379.524 286.287 372.825C303.392 366.126 320.216 363.63 336.759 365.338C353.302 367.047 368.154 373.043 381.315 383.327C394.396 393.409 404.347 407.172 411.167 424.618C417.988 442.064 419.947 459.074 417.046 475.649C414.274 491.939 407.288 506.371 396.088 518.945C385.097 531.437 371.049 541.032 353.944 547.731ZM336.338 502.697C346.559 498.694 353.788 491.652 358.026 481.571C362.471 471.409 362.037 459.532 356.724 445.94C351.41 432.349 343.78 423.29 333.833 418.765C324.094 414.158 314.114 413.856 303.893 417.859C293.463 421.944 286.234 428.986 282.206 438.985C278.098 448.781 278.74 460.576 284.133 474.37C289.446 487.962 296.868 497.102 306.398 501.791C316.137 506.398 326.117 506.7 336.338 502.697Z" fill="#222222"/>
<path d="M566.904 267.656C566.543 266.733 565.504 266.278 564.583 266.639L514.415 286.287C513.493 286.648 513.039 287.688 513.399 288.611L548.791 379.14C553.232 390.5 553.657 400.509 550.066 409.167C546.476 417.825 539.465 424.196 529.036 428.28C518.814 432.284 509.45 432.325 500.942 428.406C492.435 424.486 485.96 416.847 481.519 405.486L446.127 314.957C445.767 314.035 444.728 313.58 443.806 313.941L393.951 333.466C393.03 333.827 392.575 334.867 392.936 335.789L431.063 433.317C436.853 448.126 444.705 459.904 454.619 468.653C464.534 477.402 475.752 482.716 488.273 484.596C500.714 486.273 513.61 484.497 526.96 479.269C538.225 474.857 547.573 468.623 555.007 460.565C561.168 453.769 565.646 446.545 568.44 438.894C569.036 437.261 571.468 437.147 572.101 438.766L578.473 455.063C578.833 455.986 579.872 456.441 580.794 456.08L630.962 436.432C631.883 436.071 632.338 435.031 631.977 434.109L566.904 267.656Z" fill="#222222"/>
<path d="M654.591 257.696C655.236 259.345 657.707 259.178 658.214 257.481C661.043 248.026 665.517 239.559 671.637 232.08C678.53 223.373 687.335 216.774 698.053 212.284C698.966 211.901 700.007 212.358 700.367 213.28L720.593 265.017C720.954 265.939 720.499 266.979 719.578 267.34L706.54 272.446C693.19 277.675 684.288 284.436 679.833 292.73C675.299 300.822 675.769 311.866 681.241 325.864L711.398 403.004C711.759 403.926 711.304 404.967 710.383 405.327L660.215 424.975C659.293 425.336 658.254 424.881 657.894 423.959L592.82 257.506C592.46 256.584 592.914 255.543 593.836 255.182L644.004 235.535C644.925 235.174 645.964 235.629 646.325 236.551L654.591 257.696Z" fill="#222222"/>
<path d="M808.194 361.056C822.066 361.47 836.616 358.696 851.844 352.732C866.028 347.177 877.567 340.085 886.461 331.456C895.563 322.745 901.424 313.432 904.042 303.517C906.79 293.318 906.221 283.249 902.335 273.309C897.526 261.625 890.645 253.559 881.691 249.113C872.866 244.382 863.791 242.088 854.466 242.231C845.062 242.172 833.259 243.052 819.057 244.871C806.841 246.848 797.546 247.682 791.171 247.371C785.004 246.979 780.969 244.349 779.066 239.481C777.48 235.423 777.919 231.625 780.385 228.087C782.77 224.345 787.092 221.249 793.35 218.799C800.651 215.939 807.166 215.376 812.894 217.109C818.343 218.624 822.611 221.784 825.699 226.587C826.181 227.338 827.119 227.678 827.95 227.353L874.081 209.286C875.073 208.898 875.51 207.732 874.996 206.798C866.328 191.063 853.869 180.512 837.62 175.145C820.98 169.498 801.709 170.963 779.807 179.541C764.997 185.341 753.08 192.698 744.057 201.612C735.243 210.445 729.606 220.021 727.146 230.341C724.815 240.377 725.553 250.263 729.36 260C733.88 271.563 740.513 279.609 749.259 284.137C757.926 288.462 767.065 290.614 776.678 290.591C786.211 290.367 797.791 289.223 811.417 287.162C824.208 285.427 833.687 284.755 839.854 285.147C845.941 285.336 849.937 287.865 851.84 292.734C853.426 296.791 852.857 300.873 850.134 304.981C847.539 308.804 842.904 312.023 836.229 314.637C828.928 317.496 822.061 318.081 815.627 316.39C809.745 314.844 805.328 311.648 802.379 306.802C801.902 306.019 800.941 305.65 800.088 305.984L750.51 325.401C749.538 325.782 749.094 326.911 749.576 327.837C754.685 337.653 762.141 345.505 771.944 351.393C782.238 357.42 794.321 360.641 808.194 361.056Z" fill="#222222"/>
<path fill-rule="evenodd" clip-rule="evenodd" d="M1072.15 162.593C1073.87 167.006 1075.4 171.687 1076.75 176.635C1076.98 177.512 1076.52 178.424 1075.67 178.755L957.871 224.891C956.898 225.273 956.454 226.406 956.939 227.332C961.792 236.589 968.114 242.778 975.908 245.898C984.307 248.924 992.991 248.681 1001.96 245.168C1014.92 240.092 1022.03 231.356 1023.29 218.958C1023.36 218.271 1023.79 217.67 1024.44 217.418L1078.17 196.374C1079.26 195.946 1080.46 196.668 1080.57 197.839C1081.59 209.348 1080.11 220.702 1076.15 231.902C1072.13 243.769 1065.38 254.484 1055.89 264.049C1046.39 273.614 1034.56 281.174 1020.37 286.729C1003.27 293.428 986.653 295.842 970.527 293.97C954.402 292.098 940.007 286.04 927.342 275.795C914.678 265.551 904.896 251.604 897.996 233.955C891.097 216.306 888.72 199.459 890.866 183.414C893.22 167.287 899.685 153.059 910.259 140.731C920.834 128.402 934.777 118.848 952.091 112.067C968.987 105.45 985.354 103.016 1001.19 104.767C1017.03 106.517 1031.1 112.353 1043.39 122.274C1055.9 132.113 1065.48 145.552 1072.15 162.593ZM1010.37 170.998C1011.29 170.637 1011.75 169.595 1011.35 168.69C1007.79 160.689 1002.12 155.366 994.322 152.721C986.003 149.897 977.149 150.323 967.762 154C958.793 157.513 952.17 163.03 947.895 170.553C944.112 177.474 943.036 185.461 944.665 194.513C944.86 195.597 946.003 196.206 947.027 195.805L1010.37 170.998Z" fill="#222222"/>
<path d="M1150.44 227.015C1164.32 227.43 1178.87 224.656 1194.09 218.692C1208.28 213.137 1219.82 206.045 1228.71 197.415C1237.81 188.704 1243.67 179.391 1246.29 169.477C1249.04 159.278 1248.47 149.208 1244.59 139.268C1239.78 127.584 1232.9 119.519 1223.94 115.073C1215.12 110.342 1206.04 108.048 1196.72 108.191C1187.31 108.131 1175.51 109.011 1161.31 110.83C1149.09 112.808 1139.8 113.641 1133.42 113.331C1127.25 112.939 1123.22 110.309 1121.32 105.44C1119.73 101.383 1120.17 97.585 1122.64 94.0464C1125.02 90.305 1129.34 87.2088 1135.6 84.758C1142.9 81.8987 1149.42 81.3355 1155.15 83.0685C1160.59 84.5838 1164.86 87.743 1167.95 92.5463C1168.43 93.2972 1169.37 93.638 1170.2 93.3126L1216.33 75.2456C1217.32 74.8571 1217.76 73.6911 1217.25 72.7574C1208.58 57.0227 1196.12 46.4716 1179.87 41.1041C1163.23 35.4571 1143.96 36.9226 1122.06 45.5006C1107.25 51.3009 1095.33 58.6581 1086.31 67.5719C1077.49 76.4041 1071.86 85.9804 1069.4 96.3005C1067.07 106.336 1067.8 116.223 1071.61 125.96C1076.13 137.523 1082.76 145.568 1091.51 150.096C1100.18 154.422 1109.32 156.573 1118.93 156.551C1128.46 156.326 1140.04 155.183 1153.67 153.121C1166.46 151.386 1175.94 150.715 1182.1 151.107C1188.19 151.296 1192.19 153.825 1194.09 158.693C1195.68 162.751 1195.11 166.833 1192.38 170.941C1189.79 174.764 1185.16 177.982 1178.48 180.597C1171.18 183.456 1164.31 184.04 1157.88 182.35C1152 180.804 1147.58 177.608 1144.63 172.762C1144.15 171.979 1143.19 171.61 1142.34 171.944L1092.76 191.361C1091.79 191.742 1091.34 192.871 1091.83 193.797C1096.94 203.613 1104.39 211.465 1114.2 217.353C1124.49 223.38 1136.57 226.6 1150.44 227.015Z" fill="#222222"/>
<path d="M47.9478 667.573C66.0183 660.496 74.9354 640.096 67.8645 622.009C60.7936 603.922 40.4124 594.997 22.3419 602.075C4.27126 609.152 -4.64578 629.551 2.42509 647.638C9.49597 665.725 29.8772 674.65 47.9478 667.573Z" fill="#222222"/>
<path d="M254.167 166.694C254.167 167.398 254.876 167.882 255.532 167.625L293.212 152.868C294.133 152.507 295.172 152.962 295.533 153.885L356.339 309.423C356.7 310.345 357.739 310.8 358.66 310.439L411.583 289.713C412.504 289.352 412.959 288.312 412.598 287.389L333.605 85.3289C333.244 84.4067 332.205 83.9514 331.284 84.3124L254.803 114.266C254.42 114.416 254.167 114.785 254.167 115.197V166.694Z" fill="#222222"/>
</svg>
