<svg width="880" height="290" viewBox="0 0 880 290" fill="none" xmlns="http://www.w3.org/2000/svg">
<path fill-rule="evenodd" clip-rule="evenodd" d="M160.537 120.81C160.369 120.346 159.93 120.038 159.437 120.037L102.85 119.931C102.358 119.93 101.917 120.237 101.746 120.7L92.9025 144.663C92.7317 145.126 92.2908 145.433 91.7985 145.432L54.5562 145.362C53.73 145.361 53.1652 144.527 53.4686 143.757L109.437 1.72626C109.614 1.27623 110.048 0.980692 110.531 0.981575L152.933 1.0609C153.416 1.0618 153.849 1.35898 154.023 1.80965L209.117 144.049C209.415 144.82 208.845 145.651 208.019 145.649L170.332 145.579C169.84 145.578 169.401 145.269 169.233 144.806L160.537 120.81ZM148.884 92.8489C149.699 92.8504 150.268 92.0396 149.99 91.2726L132.489 42.954C132.116 41.9233 130.66 41.9233 130.284 42.954L112.689 91.2069C112.41 91.9722 112.974 92.7818 113.787 92.7833L148.884 92.8489Z" fill="white"/>
<path d="M489.883 3.43872C490.322 2.6565 489.76 1.69063 488.864 1.68896L448.921 1.61425C448.476 1.61345 448.068 1.86539 447.868 2.26458L419.059 59.958C418.626 60.8255 417.389 60.825 416.959 59.9572L388.29 2.15015C388.092 1.75186 387.687 1.4998 387.242 1.49895L346.853 1.42343C345.957 1.42176 345.389 2.38556 345.823 3.16932L398.411 97.988C398.508 98.1634 398.559 98.3608 398.558 98.5615L398.416 144.831C398.414 145.479 398.938 146.006 399.585 146.007L435.242 146.074C435.89 146.075 436.417 145.55 436.419 144.902L436.561 98.6325C436.562 98.4318 436.614 98.2346 436.712 98.0596L489.883 3.43872Z" fill="white"/>
<path d="M189.954 32.4905C189.695 33.1459 190.178 33.8558 190.882 33.8572L216.87 33.9057C217.518 33.907 218.041 34.4339 218.039 35.0826L217.703 144.493C217.701 145.141 218.224 145.668 218.872 145.67L256.084 145.739C256.732 145.74 257.259 145.215 257.261 144.567L257.699 2.43143C257.701 1.78271 257.177 1.25575 256.529 1.25459L202.987 1.15448C202.576 1.15372 202.206 1.40502 202.055 1.78779L189.954 32.4905Z" fill="white"/>
<path d="M51.3634 227.071C51.4017 214.656 54.0018 203.816 59.1639 194.55C64.4726 185.285 71.7549 178.164 81.0106 173.186C90.413 168.21 101.128 165.732 113.155 165.755C128.556 165.784 141.377 169.732 151.62 177.599C161.66 185.202 168.335 195.797 171.645 209.383C171.823 210.115 171.263 210.813 170.511 210.812L132.754 210.741C132.263 210.74 131.827 210.432 131.646 209.975C128.221 201.346 121.805 197.022 112.399 197.004C105.505 196.991 99.9968 199.621 95.8737 204.893C91.7511 210.023 89.6748 217.439 89.645 227.142C89.6151 236.846 91.6455 244.341 95.736 249.629C99.8271 254.774 105.319 257.352 112.213 257.365C121.62 257.383 128.062 253.083 131.54 244.466C131.724 244.01 132.162 243.704 132.653 243.704L170.402 243.775C171.157 243.776 171.713 244.481 171.526 245.213C168.131 258.51 161.394 269.006 151.315 276.703C140.877 284.674 128.031 288.646 112.777 288.617C100.75 288.595 90.0503 286.077 80.6786 281.065C71.4537 276.054 64.2153 268.905 58.9636 259.62C53.8586 250.335 51.3253 239.485 51.3634 227.071Z" fill="white"/>
<path fill-rule="evenodd" clip-rule="evenodd" d="M238.945 288.853C226.918 288.831 216.072 286.313 206.407 281.301C196.888 276.288 189.357 269.139 183.812 259.854C178.413 250.568 175.733 239.718 175.772 227.303C175.809 215.031 178.629 204.263 184.231 194.998C189.834 185.591 197.483 178.399 207.179 173.422C216.874 168.446 227.736 165.969 239.763 165.992C251.79 166.014 262.636 168.532 272.301 173.544C281.966 178.557 289.571 185.777 295.116 195.206C300.661 204.491 303.414 215.27 303.377 227.542C303.339 239.814 300.445 250.654 294.696 260.061C289.094 269.326 281.372 276.446 271.529 281.422C261.834 286.399 250.972 288.876 238.945 288.853ZM239.042 257.174C246.229 257.188 252.324 254.631 257.327 249.503C262.476 244.375 265.066 237.031 265.095 227.471C265.125 217.91 262.654 210.556 257.683 205.41C252.858 200.264 246.853 197.684 239.666 197.671C232.332 197.657 226.237 200.214 221.381 205.342C216.526 210.327 214.083 217.672 214.053 227.375C214.024 236.936 216.348 244.289 221.025 249.435C225.85 254.581 231.856 257.161 239.042 257.174Z" fill="white"/>
<path d="M435.94 169.246C435.942 168.597 435.418 168.07 434.77 168.069L399.495 168.003C398.847 168.002 398.321 168.527 398.318 169.176L398.123 232.857C398.098 240.848 395.952 247.051 391.685 251.467C387.418 255.882 381.618 258.083 374.284 258.069C367.097 258.056 361.384 255.833 357.144 251.402C352.904 246.97 350.796 240.759 350.821 232.768L351.017 169.087C351.019 168.438 350.495 167.911 349.847 167.91L314.792 167.845C314.144 167.843 313.617 168.368 313.615 169.017L313.404 237.621C313.372 248.038 315.324 257.103 319.261 264.816C323.197 272.529 328.753 278.461 335.927 282.613C343.101 286.622 351.382 288.635 360.769 288.653C368.69 288.668 375.881 287.111 382.345 283.984C387.73 281.32 392.193 277.992 395.733 273.999C396.488 273.146 397.997 273.66 397.994 274.799L397.958 286.263C397.956 286.912 398.48 287.439 399.128 287.44L434.403 287.506C435.051 287.507 435.578 286.983 435.58 286.334L435.94 169.246Z" fill="white"/>
<path d="M491.739 184.224C491.735 185.384 493.28 185.875 493.997 184.963C497.991 179.878 502.751 175.791 508.275 172.701C514.565 169.048 521.513 167.139 529.12 166.975C529.768 166.961 530.292 167.489 530.29 168.138L530.178 204.531C530.176 205.18 529.649 205.705 529.001 205.703L519.834 205.686C510.447 205.669 503.4 207.653 498.695 211.64C493.989 215.484 491.621 222.329 491.591 232.175L491.424 286.438C491.422 287.087 490.895 287.612 490.247 287.611L454.972 287.545C454.324 287.544 453.801 287.017 453.803 286.368L454.163 169.28C454.165 168.631 454.692 168.106 455.34 168.107L490.615 168.173C491.263 168.175 491.786 168.701 491.784 169.35L491.739 184.224Z" fill="white"/>
<path d="M560.456 284.103C568.805 287.686 578.334 289.488 589.041 289.508C599.014 289.527 607.746 287.973 615.236 284.848C622.873 281.723 628.68 277.453 632.656 272.038C636.78 266.48 638.853 260.205 638.875 253.213C638.753 244.937 636.5 238.368 632.115 233.508C627.877 228.506 622.901 224.929 617.187 222.778C611.474 220.484 604.074 218.187 594.987 215.887C587.072 214.16 581.211 212.436 577.403 210.717C573.741 208.998 571.916 206.426 571.926 203.001C571.935 200.147 573.115 197.938 575.467 196.372C577.819 194.664 581.195 193.814 585.595 193.823C590.728 193.832 594.832 195.053 597.904 197.484C600.858 199.716 602.699 202.666 603.425 206.336C603.539 206.909 604.028 207.342 604.613 207.343L637.049 207.404C637.747 207.405 638.293 206.799 638.204 206.107C636.706 194.434 631.653 185.012 623.046 177.839C614.268 170.402 602.179 166.67 586.779 166.641C576.365 166.621 567.339 168.245 559.702 171.513C552.212 174.781 546.478 179.266 542.5 184.966C538.67 190.524 536.744 196.728 536.723 203.577C536.698 211.711 538.804 218.208 543.043 223.067C547.282 227.784 552.331 231.29 558.191 233.584C564.052 235.736 571.379 237.818 580.173 239.833C588.381 241.846 594.315 243.712 597.977 245.431C601.639 247.008 603.464 249.508 603.454 252.933C603.445 255.787 602.118 258.139 599.472 259.989C596.973 261.697 593.377 262.546 588.684 262.537C583.55 262.528 579.227 261.236 575.715 258.66C572.504 256.306 570.582 253.297 569.949 249.635C569.847 249.044 569.351 248.588 568.751 248.587L533.89 248.522C533.207 248.521 532.665 249.102 532.736 249.782C533.489 256.992 536.144 263.569 540.7 269.511C545.521 275.656 552.107 280.52 560.456 284.103Z" fill="white"/>
<path fill-rule="evenodd" clip-rule="evenodd" d="M768.898 226.486C768.889 229.591 768.698 232.812 768.326 236.151C768.26 236.742 767.758 237.187 767.164 237.185L684.332 237.031C683.647 237.029 683.105 237.613 683.178 238.295C683.909 245.103 686.273 250.393 690.27 254.165C694.658 258.027 700.006 259.963 706.313 259.975C715.426 259.992 721.854 256.373 725.599 249.117C725.806 248.715 726.217 248.453 726.67 248.454L764.45 248.525C765.219 248.526 765.778 249.255 765.56 249.994C763.415 257.254 759.79 263.822 754.685 269.697C749.385 275.966 742.697 280.877 734.619 284.429C726.541 287.981 717.515 289.748 707.541 289.73C695.514 289.707 684.815 287.19 675.443 282.178C666.071 277.166 658.76 270.017 653.508 260.732C648.256 251.447 645.649 240.597 645.688 228.183C645.726 215.768 648.326 204.928 653.488 195.662C658.797 186.396 666.152 179.275 675.555 174.298C684.957 169.322 695.745 166.844 707.919 166.867C719.8 166.889 730.353 169.335 739.578 174.204C748.804 179.073 755.969 186.007 761.075 195.007C766.328 204.007 768.935 214.5 768.898 226.486ZM729.254 216.78C729.901 216.781 730.431 216.256 730.404 215.608C730.161 209.877 727.984 205.27 723.872 201.787C719.484 198.068 713.989 196.203 707.389 196.191C701.082 196.179 695.723 197.953 691.312 201.512C687.345 204.823 684.77 209.433 683.587 215.342C683.446 216.05 683.996 216.696 684.716 216.697L729.254 216.78Z" fill="white"/>
<path d="M801.108 284.553C809.457 288.136 818.985 289.938 829.693 289.958C839.666 289.977 848.398 288.423 855.888 285.298C863.525 282.173 869.331 277.903 873.308 272.488C877.432 266.93 879.505 260.655 879.526 253.663C879.405 245.387 877.152 238.818 872.767 233.958C868.529 228.956 863.553 225.379 857.839 223.228C852.126 220.934 844.726 218.637 835.639 216.337C827.724 214.61 821.863 212.886 818.054 211.167C814.393 209.448 812.567 206.876 812.578 203.451C812.587 200.597 813.767 198.387 816.118 196.822C818.47 195.114 821.847 194.264 826.247 194.272C831.38 194.282 835.483 195.503 838.556 197.934C841.51 200.166 843.351 203.116 844.077 206.785C844.191 207.359 844.68 207.792 845.264 207.793L877.701 207.854C878.399 207.855 878.945 207.249 878.856 206.556C877.358 194.884 872.305 185.462 863.698 178.289C854.92 170.852 842.831 167.12 827.43 167.091C817.017 167.071 807.991 168.695 800.354 171.963C792.864 175.231 787.13 179.716 783.152 185.416C779.321 190.974 777.396 197.178 777.374 204.027C777.349 212.161 779.456 218.658 783.695 223.517C787.934 228.234 792.983 231.74 798.843 234.034C804.704 236.185 812.031 238.268 820.825 240.282C829.032 242.296 834.967 244.162 838.629 245.881C842.29 247.458 844.116 249.958 844.106 253.383C844.097 256.237 842.77 258.589 840.124 260.439C837.625 262.147 834.029 262.996 829.335 262.987C824.202 262.978 819.879 261.685 816.367 259.11C813.155 256.756 811.234 253.747 810.601 250.085C810.499 249.494 810.002 249.038 809.403 249.037L774.542 248.972C773.859 248.971 773.317 249.552 773.388 250.232C774.141 257.442 776.795 264.019 781.352 269.961C786.173 276.106 792.758 280.97 801.108 284.553Z" fill="white"/>
<path d="M23.7855 288.451C36.4918 288.475 46.8239 278.18 46.8631 265.457C46.9022 252.734 36.6335 242.401 23.9273 242.377C11.2211 242.354 0.888875 252.648 0.849721 265.371C0.810593 278.094 11.0793 288.427 23.7855 288.451Z" fill="white"/>
<path d="M269.912 32.1572C269.654 32.8126 270.136 33.5225 270.841 33.5239L296.828 33.5724C297.476 33.5737 298 34.1006 297.998 34.7493L297.661 144.159C297.659 144.808 298.183 145.335 298.831 145.336L336.043 145.406C336.691 145.407 337.217 144.882 337.219 144.233L337.657 2.09815C337.659 1.44944 337.135 0.922462 336.487 0.921302L282.946 0.821169C282.534 0.820399 282.164 1.0717 282.013 1.45448L269.912 32.1572Z" fill="white"/>
</svg>
