<svg width="817" height="439" viewBox="0 0 817 439" fill="none" xmlns="http://www.w3.org/2000/svg">
<path fill-rule="evenodd" clip-rule="evenodd" d="M97.1416 231.3C96.8155 230.931 96.2939 230.805 95.8355 230.984L43.1514 251.636C42.693 251.816 42.3954 252.263 42.4062 252.756L42.9655 278.293C42.9763 278.786 42.6787 279.233 42.2203 279.413L7.54665 293.005C6.77746 293.306 5.94645 292.738 5.94638 291.911L5.93411 139.25C5.93407 138.766 6.22997 138.332 6.6796 138.156L46.1567 122.681C46.6064 122.505 47.1179 122.623 47.4456 122.978L150.859 235.107C151.42 235.714 151.194 236.697 150.425 236.998L115.338 250.752C114.879 250.932 114.358 250.806 114.032 250.436L97.1416 231.3ZM76.0473 209.56C76.8062 209.263 77.0384 208.3 76.4987 207.688L42.4986 169.153C41.7734 168.331 40.419 168.865 40.4473 169.961L41.7715 221.305C41.7925 222.119 42.6141 222.666 43.3713 222.369L76.0473 209.56Z" fill="#156D46"/>
<path d="M360.507 1.33675C360.629 0.447865 359.752 -0.24452 358.918 0.0824219L321.73 14.6596C321.315 14.8222 321.028 15.2062 320.989 15.6506L315.342 79.8895C315.257 80.8555 314.107 81.3084 313.388 80.6588L265.518 37.3913C265.188 37.0932 264.719 37.0073 264.305 37.1695L226.701 51.9097C225.867 52.2367 225.692 53.3417 226.384 53.9115L310.078 122.842C310.232 122.969 310.352 123.134 310.425 123.321L327.259 166.42C327.495 167.024 328.175 167.322 328.779 167.086L361.976 154.073C362.579 153.836 362.877 153.155 362.641 152.551L345.807 109.452C345.734 109.265 345.71 109.063 345.737 108.864L360.507 1.33675Z" fill="#156D46"/>
<path d="M92.1236 138.346C92.1236 139.051 92.8327 139.534 93.4886 139.277L117.684 129.793C118.287 129.557 118.967 129.855 119.203 130.459L159.01 232.371C159.246 232.976 159.926 233.274 160.53 233.037L195.175 219.457C195.778 219.22 196.076 218.539 195.84 217.935L144.127 85.5397C143.891 84.9354 143.211 84.6371 142.607 84.8736L92.7587 104.414C92.3756 104.564 92.1236 104.933 92.1236 105.345V138.346Z" fill="#156D46"/>
<path d="M34.5382 370.193C30.0214 358.629 28.4655 347.59 29.8703 337.077C31.4117 326.51 35.5753 317.215 42.3613 309.19C49.2837 301.112 58.3438 294.879 69.5414 290.489C83.8798 284.869 97.2562 283.84 109.671 287.404C121.799 290.796 131.894 298.204 139.955 309.63C140.389 310.246 140.124 311.101 139.424 311.376L104.272 325.155C103.815 325.334 103.296 325.207 102.96 324.849C96.6088 318.076 89.0546 316.406 80.2968 319.839C73.8787 322.355 69.7183 326.821 67.8156 333.238C65.8611 339.522 66.649 347.183 70.1794 356.222C73.7098 365.26 78.3473 371.489 84.0918 374.908C89.7844 378.194 95.8398 378.58 102.258 376.064C111.016 372.631 115.433 366.268 115.508 356.976C115.512 356.485 115.808 356.039 116.265 355.859L151.411 342.083C152.113 341.807 152.889 342.259 152.984 343.009C154.7 356.624 152.281 368.859 145.727 379.716C138.939 390.96 128.444 399.365 114.242 404.932C103.045 409.321 92.1675 410.903 81.6108 409.677C71.1907 408.397 61.8353 404.4 53.5446 397.688C45.3905 390.922 39.0551 381.757 34.5382 370.193Z" fill="#156D46"/>
<path fill-rule="evenodd" clip-rule="evenodd" d="M231.708 358.887C220.511 363.276 209.497 364.911 198.667 363.792C187.974 362.619 178.345 358.73 169.782 352.124C161.354 345.465 154.882 336.353 150.366 324.79C145.901 313.359 144.576 302.306 146.39 291.633C148.153 280.826 152.632 271.33 159.827 263.145C167.023 254.96 176.22 248.673 187.417 244.284C198.615 239.894 209.629 238.259 220.458 239.378C231.288 240.498 241.011 244.427 249.627 251.165C258.19 257.771 264.705 266.789 269.17 278.22C273.634 289.651 274.917 300.796 273.018 311.657C271.204 322.33 266.63 331.787 259.298 340.025C252.103 348.21 242.906 354.497 231.708 358.887ZM220.183 329.379C226.874 326.756 231.607 322.142 234.38 315.537C237.291 308.878 237.007 301.096 233.528 292.191C230.05 283.285 225.055 277.35 218.543 274.385C212.167 271.366 205.634 271.168 198.943 273.791C192.115 276.468 187.382 281.082 184.745 287.633C182.056 294.052 182.476 301.78 186.007 310.819C189.485 319.724 194.344 325.713 200.583 328.785C206.958 331.804 213.491 332.002 220.183 329.379Z" fill="#156D46"/>
<path d="M371.122 175.374C370.886 174.77 370.206 174.472 369.603 174.708L336.76 187.582C336.157 187.819 335.859 188.5 336.095 189.105L359.265 248.421C362.172 255.865 362.45 262.423 360.1 268.096C357.749 273.769 353.16 277.943 346.332 280.62C339.641 283.243 333.51 283.27 327.941 280.702C322.371 278.134 318.133 273.128 315.225 265.684L292.056 206.367C291.82 205.763 291.14 205.465 290.537 205.701L257.899 218.495C257.296 218.731 256.998 219.413 257.234 220.017L282.195 283.92C285.984 293.623 291.125 301.34 297.615 307.073C304.106 312.805 311.45 316.287 319.646 317.519C327.791 318.618 336.234 317.454 344.973 314.028C352.347 311.138 358.467 307.053 363.334 301.773C367.367 297.32 370.298 292.587 372.128 287.574C372.518 286.504 374.11 286.429 374.525 287.49L378.696 298.168C378.932 298.773 379.612 299.071 380.215 298.834L413.057 285.961C413.661 285.724 413.958 285.043 413.722 284.438L371.122 175.374Z" fill="#156D46"/>
<path d="M428.526 168.848C428.949 169.929 430.566 169.819 430.898 168.708C432.75 162.512 435.679 156.965 439.685 152.065C444.198 146.359 449.962 142.035 456.979 139.093C457.576 138.843 458.258 139.142 458.494 139.746L471.734 173.645C471.97 174.25 471.673 174.931 471.07 175.168L462.535 178.513C453.795 181.939 447.967 186.369 445.051 191.804C442.083 197.106 442.39 204.342 445.972 213.514L465.715 264.058C465.951 264.662 465.653 265.344 465.05 265.58L432.208 278.454C431.605 278.69 430.924 278.392 430.688 277.788L388.088 168.724C387.852 168.12 388.15 167.438 388.753 167.202L421.595 154.328C422.199 154.091 422.879 154.39 423.115 154.994L428.526 168.848Z" fill="#156D46"/>
<path d="M529.082 236.572C538.164 236.844 547.689 235.026 557.657 231.119C566.943 227.479 574.497 222.832 580.319 217.178C586.278 211.47 590.115 205.368 591.829 198.872C593.628 192.189 593.255 185.591 590.711 179.078C587.563 171.423 583.058 166.138 577.197 163.225C571.419 160.125 565.478 158.622 559.374 158.716C553.218 158.677 545.491 159.253 536.194 160.445C528.197 161.741 522.111 162.287 517.938 162.084C513.901 161.827 511.26 160.103 510.014 156.913C508.975 154.255 509.263 151.767 510.877 149.448C512.439 146.997 515.268 144.968 519.365 143.362C524.144 141.488 528.409 141.119 532.159 142.255C535.726 143.248 538.52 145.318 540.541 148.465C540.858 148.957 541.471 149.18 542.015 148.967L572.215 137.129C572.864 136.875 573.151 136.111 572.814 135.499C567.139 125.189 558.983 118.276 548.346 114.759C537.453 111.059 524.837 112.019 510.498 117.64C500.803 121.44 493.002 126.261 487.095 132.101C481.325 137.888 477.634 144.163 476.024 150.925C474.498 157.5 474.982 163.978 477.474 170.358C480.433 177.935 484.775 183.206 490.501 186.173C496.174 189.007 502.157 190.417 508.45 190.402C514.691 190.255 522.272 189.506 531.192 188.155C539.566 187.018 545.771 186.578 549.808 186.835C553.793 186.959 556.409 188.616 557.655 191.806C558.693 194.465 558.321 197.139 556.538 199.831C554.839 202.336 551.805 204.445 547.435 206.158C542.656 208.031 538.16 208.414 533.948 207.306C530.097 206.293 527.206 204.199 525.275 201.024C524.963 200.511 524.334 200.269 523.776 200.488L491.319 213.211C490.683 213.46 490.392 214.2 490.708 214.807C494.052 221.238 498.933 226.383 505.351 230.241C512.09 234.19 520 236.3 529.082 236.572Z" fill="#156D46"/>
<path fill-rule="evenodd" clip-rule="evenodd" d="M701.877 106.535C703.007 109.426 704.011 112.493 704.889 115.736C705.044 116.31 704.74 116.908 704.186 117.125L627.068 147.354C626.431 147.604 626.14 148.346 626.458 148.953C629.634 155.019 633.774 159.074 638.875 161.118C644.374 163.101 650.059 162.942 655.931 160.64C664.415 157.314 669.069 151.59 669.892 143.467C669.938 143.016 670.224 142.622 670.645 142.457L705.82 128.669C706.536 128.388 707.323 128.862 707.391 129.629C708.058 137.17 707.094 144.609 704.499 151.948C701.867 159.723 697.445 166.744 691.232 173.011C685.02 179.278 677.27 184.232 667.985 187.872C656.787 192.261 645.91 193.843 635.353 192.616C624.796 191.39 615.373 187.42 607.082 180.708C598.792 173.995 592.388 164.857 587.871 153.293C583.354 141.729 581.798 130.69 583.203 120.177C584.744 109.611 588.976 100.288 595.899 92.2102C602.821 84.1323 611.95 77.8718 623.284 73.429C634.345 69.0932 645.059 67.4987 655.428 68.6457C665.796 69.7926 675.005 73.6162 683.055 80.1166C691.242 86.5634 697.516 95.3695 701.877 106.535ZM661.435 112.042C662.038 111.806 662.338 111.122 662.075 110.53C659.748 105.287 656.033 101.799 650.93 100.066C645.484 98.2161 639.688 98.4955 633.543 100.904C627.671 103.206 623.336 106.821 620.537 111.75C618.061 116.285 617.356 121.518 618.422 127.45C618.55 128.16 619.298 128.559 619.969 128.296L661.435 112.042Z" fill="#156D46"/>
<path d="M753.136 148.746C762.217 149.018 771.742 147.2 781.711 143.292C790.997 139.652 798.551 135.005 804.373 129.351C810.332 123.643 814.168 117.542 815.882 111.045C817.681 104.363 817.309 97.7649 814.765 91.2519C811.617 83.5962 807.112 78.3116 801.25 75.3983C795.473 72.2985 789.532 70.7955 783.428 70.8893C777.271 70.8502 769.544 71.4267 760.247 72.6187C752.25 73.9142 746.165 74.4604 741.991 74.2572C737.955 74.0003 735.313 72.2769 734.067 69.0868C733.029 66.4285 733.316 63.94 734.93 61.6215C736.492 59.17 739.321 57.1413 743.418 55.5355C748.198 53.662 752.463 53.2929 756.213 54.4284C759.779 55.4213 762.573 57.4913 764.595 60.6386C764.911 61.1306 765.525 61.3538 766.069 61.1406L796.268 49.3027C796.918 49.0481 797.204 48.2842 796.867 47.6724C791.193 37.3626 783.037 30.4493 772.399 26.9324C761.506 23.2323 748.89 24.1926 734.552 29.8131C724.857 33.6136 717.055 38.4342 711.149 44.2747C705.378 50.0618 701.688 56.3364 700.078 63.0984C698.552 69.6739 699.035 76.1518 701.527 82.5318C704.486 90.1082 708.829 95.3799 714.554 98.3467C720.228 101.181 726.211 102.591 732.504 102.576C738.745 102.429 746.325 101.68 755.245 100.329C763.619 99.1919 769.825 98.752 773.862 99.0088C777.847 99.1327 780.462 100.79 781.708 103.98C782.747 106.638 782.374 109.313 780.591 112.004C778.893 114.509 775.859 116.618 771.489 118.331C766.709 120.205 762.214 120.588 758.002 119.48C754.151 118.467 751.26 116.373 749.329 113.198C749.017 112.685 748.388 112.443 747.829 112.662L715.373 125.384C714.737 125.634 714.446 126.373 714.761 126.98C718.106 133.412 722.987 138.557 729.405 142.415C736.144 146.364 744.054 148.474 753.136 148.746Z" fill="#156D46"/>
<path d="M31.3889 437.41C43.2187 432.772 49.0562 419.406 44.4273 407.555C39.7984 395.704 26.4559 389.856 14.626 394.494C2.79617 399.131 -3.04135 412.497 1.58758 424.348C6.21651 436.199 19.559 442.047 31.3889 437.41Z" fill="#156D46"/>
<path d="M166.39 108.716C166.39 109.421 167.099 109.904 167.755 109.647L191.95 100.163C192.553 99.9265 193.234 100.225 193.47 100.829L233.276 202.741C233.512 203.345 234.193 203.644 234.796 203.407L269.442 189.827C270.045 189.59 270.342 188.909 270.106 188.304L218.393 55.9095C218.157 55.3053 217.477 55.007 216.874 55.2435L167.025 74.7836C166.642 74.9338 166.39 75.3032 166.39 75.7147V108.716Z" fill="#156D46"/>
</svg>
