<svg width="893" height="519" viewBox="0 0 893 519" fill="none" xmlns="http://www.w3.org/2000/svg">
<rect x="26" y="122.896" width="444.591" height="223.029" transform="rotate(-8.92027 26 122.896)" fill="white"/>
<rect x="0.825195" y="344.857" width="869.488" height="188.916" transform="rotate(-23.3671 0.825195 344.857)" fill="white"/>
<path fill-rule="evenodd" clip-rule="evenodd" d="M173.142 245.3C172.816 244.931 172.294 244.805 171.836 244.984L119.151 265.636C118.693 265.816 118.395 266.263 118.406 266.756L118.965 292.293C118.976 292.786 118.679 293.233 118.22 293.413L83.5467 307.005C82.7775 307.306 81.9465 306.738 81.9464 305.911L81.9341 153.25C81.9341 152.766 82.23 152.332 82.6796 152.156L122.157 136.681C122.606 136.505 123.118 136.623 123.446 136.978L226.859 249.107C227.42 249.714 227.194 250.697 226.425 250.998L191.338 264.752C190.879 264.932 190.358 264.806 190.032 264.436L173.142 245.3ZM152.047 223.56C152.806 223.263 153.038 222.3 152.499 221.688L118.499 183.153C117.773 182.331 116.419 182.865 116.447 183.961L117.772 235.305C117.793 236.119 118.614 236.666 119.371 236.369L152.047 223.56Z" fill="#333333"/>
<path d="M436.507 15.3368C436.629 14.4479 435.752 13.7555 434.918 14.0824L397.73 28.6596C397.315 28.8222 397.028 29.2062 396.989 29.6506L391.342 93.8895C391.257 94.8555 390.107 95.3084 389.388 94.6588L341.518 51.3913C341.188 51.0932 340.719 51.0073 340.305 51.1695L302.701 65.9097C301.867 66.2367 301.692 67.3417 302.384 67.9115L386.078 136.842C386.232 136.969 386.352 137.134 386.425 137.321L403.259 180.42C403.495 181.024 404.175 181.322 404.779 181.086L437.976 168.073C438.579 167.836 438.877 167.155 438.641 166.551L421.807 123.452C421.734 123.265 421.71 123.063 421.737 122.864L436.507 15.3368Z" fill="#333333"/>
<path d="M168.124 152.346C168.124 153.051 168.833 153.534 169.489 153.277L193.684 143.793C194.287 143.557 194.967 143.855 195.203 144.459L235.01 246.371C235.246 246.976 235.926 247.274 236.53 247.037L271.175 233.457C271.778 233.22 272.076 232.539 271.84 231.935L220.127 99.5397C219.891 98.9354 219.211 98.6371 218.607 98.8736L168.759 118.414C168.376 118.564 168.124 118.933 168.124 119.345V152.346Z" fill="#333333"/>
<path d="M110.538 384.193C106.021 372.629 104.465 361.59 105.87 351.077C107.412 340.51 111.575 331.215 118.361 323.19C125.284 315.112 134.344 308.879 145.541 304.489C159.88 298.869 173.256 297.84 185.671 301.404C197.799 304.796 207.894 312.204 215.955 323.63C216.389 324.246 216.124 325.101 215.424 325.376L180.272 339.155C179.815 339.334 179.296 339.207 178.96 338.849C172.609 332.076 165.055 330.406 156.297 333.839C149.879 336.355 145.718 340.821 143.816 347.238C141.861 353.522 142.649 361.183 146.179 370.222C149.71 379.26 154.347 385.489 160.092 388.908C165.784 392.194 171.84 392.58 178.258 390.064C187.016 386.631 191.433 380.268 191.508 370.976C191.512 370.485 191.808 370.039 192.265 369.859L227.411 356.083C228.113 355.807 228.889 356.259 228.984 357.009C230.7 370.624 228.281 382.859 221.727 393.716C214.939 404.96 204.444 413.365 190.242 418.932C179.045 423.321 168.168 424.903 157.611 423.677C147.191 422.397 137.835 418.4 129.545 411.688C121.391 404.922 115.055 395.757 110.538 384.193Z" fill="#333333"/>
<path fill-rule="evenodd" clip-rule="evenodd" d="M307.708 372.887C296.511 377.276 285.497 378.911 274.667 377.792C263.974 376.619 254.345 372.73 245.782 366.124C237.354 359.465 230.882 350.353 226.366 338.79C221.901 327.359 220.576 316.306 222.39 305.633C224.153 294.826 228.632 285.33 235.827 277.145C243.023 268.96 252.22 262.673 263.417 258.284C274.615 253.894 285.629 252.259 296.458 253.378C307.288 254.498 317.011 258.427 325.627 265.165C334.19 271.771 340.705 280.789 345.17 292.22C349.634 303.651 350.917 314.796 349.018 325.657C347.204 336.33 342.63 345.787 335.298 354.025C328.103 362.21 318.906 368.497 307.708 372.887ZM296.183 343.379C302.874 340.756 307.607 336.142 310.38 329.537C313.291 322.878 313.007 315.096 309.528 306.191C306.05 297.285 301.055 291.35 294.543 288.385C288.167 285.366 281.634 285.168 274.943 287.791C268.115 290.468 263.382 295.082 260.745 301.633C258.056 308.052 258.476 315.78 262.007 324.819C265.485 333.724 270.344 339.713 276.583 342.785C282.958 345.804 289.491 346.002 296.183 343.379Z" fill="#333333"/>
<path d="M447.122 189.374C446.886 188.77 446.206 188.472 445.603 188.708L412.76 201.582C412.157 201.819 411.859 202.5 412.095 203.105L435.265 262.421C438.172 269.865 438.45 276.423 436.1 282.096C433.749 287.769 429.16 291.943 422.332 294.62C415.641 297.243 409.51 297.27 403.941 294.702C398.371 292.134 394.133 287.128 391.225 279.684L368.056 220.367C367.82 219.763 367.14 219.465 366.537 219.701L333.899 232.495C333.296 232.731 332.998 233.413 333.234 234.017L358.195 297.92C361.984 307.623 367.125 315.34 373.615 321.073C380.106 326.805 387.45 330.287 395.646 331.519C403.791 332.618 412.234 331.454 420.973 328.028C428.347 325.138 434.467 321.053 439.334 315.773C443.367 311.32 446.298 306.587 448.128 301.574C448.518 300.504 450.11 300.429 450.525 301.49L454.696 312.168C454.932 312.773 455.612 313.071 456.215 312.834L489.057 299.961C489.661 299.724 489.958 299.043 489.722 298.438L447.122 189.374Z" fill="#333333"/>
<path d="M504.526 182.848C504.949 183.929 506.566 183.819 506.898 182.708C508.75 176.512 511.679 170.965 515.685 166.065C520.198 160.359 525.962 156.035 532.979 153.093C533.576 152.843 534.258 153.142 534.494 153.746L547.734 187.645C547.97 188.25 547.673 188.931 547.07 189.168L538.535 192.513C529.795 195.939 523.967 200.369 521.051 205.804C518.083 211.106 518.39 218.342 521.972 227.514L541.715 278.058C541.951 278.662 541.653 279.344 541.05 279.58L508.208 292.454C507.605 292.69 506.924 292.392 506.688 291.788L464.088 182.724C463.852 182.12 464.15 181.438 464.753 181.202L497.595 168.328C498.199 168.091 498.879 168.39 499.115 168.994L504.526 182.848Z" fill="#333333"/>
<path d="M605.082 250.572C614.164 250.844 623.689 249.026 633.657 245.119C642.943 241.479 650.497 236.832 656.319 231.178C662.278 225.47 666.115 219.368 667.829 212.872C669.628 206.189 669.255 199.591 666.711 193.078C663.563 185.423 659.058 180.138 653.197 177.225C647.419 174.125 641.478 172.622 635.374 172.716C629.218 172.677 621.491 173.253 612.194 174.445C604.197 175.741 598.111 176.287 593.938 176.084C589.901 175.827 587.26 174.103 586.014 170.913C584.975 168.255 585.263 165.767 586.877 163.448C588.439 160.997 591.268 158.968 595.365 157.362C600.144 155.488 604.409 155.119 608.159 156.255C611.726 157.248 614.52 159.318 616.541 162.465C616.858 162.957 617.471 163.18 618.015 162.967L648.215 151.129C648.864 150.875 649.151 150.111 648.814 149.499C643.139 139.189 634.983 132.276 624.346 128.759C613.453 125.059 600.837 126.019 586.498 131.64C576.803 135.44 569.002 140.261 563.095 146.101C557.325 151.888 553.634 158.163 552.024 164.925C550.498 171.5 550.982 177.978 553.474 184.358C556.433 191.935 560.775 197.206 566.501 200.173C572.174 203.007 578.157 204.417 584.45 204.402C590.691 204.255 598.272 203.506 607.192 202.155C615.566 201.018 621.771 200.578 625.808 200.835C629.793 200.959 632.409 202.616 633.655 205.806C634.693 208.465 634.321 211.139 632.538 213.831C630.839 216.336 627.805 218.445 623.435 220.158C618.656 222.031 614.16 222.414 609.948 221.306C606.097 220.293 603.206 218.199 601.275 215.024C600.963 214.511 600.334 214.269 599.776 214.488L567.319 227.211C566.683 227.46 566.392 228.2 566.708 228.807C570.052 235.238 574.933 240.383 581.351 244.241C588.09 248.19 596 250.3 605.082 250.572Z" fill="#333333"/>
<path fill-rule="evenodd" clip-rule="evenodd" d="M777.877 120.535C779.007 123.426 780.011 126.493 780.889 129.736C781.044 130.31 780.74 130.908 780.186 131.125L703.068 161.354C702.431 161.604 702.14 162.346 702.458 162.953C705.634 169.019 709.774 173.074 714.875 175.118C720.374 177.101 726.059 176.942 731.931 174.64C740.415 171.314 745.069 165.59 745.892 157.467C745.938 157.016 746.224 156.622 746.645 156.457L781.82 142.669C782.536 142.388 783.323 142.862 783.391 143.629C784.058 151.17 783.094 158.609 780.499 165.948C777.867 173.723 773.445 180.744 767.232 187.011C761.02 193.278 753.27 198.232 743.985 201.872C732.787 206.261 721.91 207.843 711.353 206.616C700.796 205.39 691.373 201.42 683.082 194.708C674.792 187.995 668.388 178.857 663.871 167.293C659.354 155.729 657.798 144.69 659.203 134.177C660.744 123.611 664.976 114.288 671.899 106.21C678.821 98.1323 687.95 91.8718 699.284 87.429C710.345 83.0932 721.059 81.4987 731.428 82.6457C741.796 83.7926 751.005 87.6162 759.055 94.1166C767.242 100.563 773.516 109.369 777.877 120.535ZM737.435 126.042C738.038 125.806 738.338 125.122 738.075 124.53C735.748 119.287 732.033 115.799 726.93 114.066C721.484 112.216 715.688 112.496 709.543 114.904C703.671 117.206 699.336 120.821 696.537 125.75C694.061 130.285 693.356 135.518 694.422 141.45C694.55 142.16 695.298 142.559 695.969 142.296L737.435 126.042Z" fill="#333333"/>
<path d="M829.136 162.746C838.217 163.018 847.742 161.2 857.711 157.292C866.997 153.652 874.551 149.005 880.373 143.351C886.332 137.643 890.168 131.542 891.882 125.045C893.681 118.363 893.309 111.765 890.765 105.252C887.617 97.5962 883.112 92.3116 877.25 89.3983C871.473 86.2985 865.532 84.7955 859.428 84.8893C853.271 84.8502 845.544 85.4267 836.247 86.6187C828.25 87.9142 822.165 88.4604 817.991 88.2572C813.955 88.0003 811.313 86.2769 810.067 83.0868C809.029 80.4285 809.316 77.94 810.93 75.6215C812.492 73.17 815.321 71.1413 819.418 69.5355C824.198 67.662 828.463 67.2929 832.213 68.4284C835.779 69.4213 838.573 71.4913 840.595 74.6386C840.911 75.1306 841.525 75.3538 842.069 75.1406L872.268 63.3027C872.918 63.0481 873.204 62.2842 872.867 61.6724C867.193 51.3626 859.037 44.4493 848.399 40.9324C837.506 37.2323 824.89 38.1926 810.552 43.8131C800.857 47.6136 793.055 52.4342 787.149 58.2747C781.378 64.0618 777.688 70.3364 776.078 77.0984C774.552 83.6739 775.035 90.1518 777.527 96.5318C780.486 104.108 784.829 109.38 790.554 112.347C796.228 115.181 802.211 116.591 808.504 116.576C814.745 116.429 822.325 115.68 831.245 114.329C839.619 113.192 845.825 112.752 849.862 113.009C853.847 113.133 856.462 114.79 857.708 117.98C858.747 120.638 858.374 123.313 856.591 126.004C854.893 128.509 851.859 130.618 847.489 132.331C842.709 134.205 838.214 134.588 834.002 133.48C830.151 132.467 827.26 130.373 825.329 127.198C825.017 126.685 824.388 126.443 823.829 126.662L791.373 139.384C790.737 139.634 790.446 140.373 790.761 140.98C794.106 147.412 798.987 152.557 805.405 156.415C812.144 160.364 820.054 162.474 829.136 162.746Z" fill="#333333"/>
<path d="M107.389 451.41C119.219 446.772 125.056 433.406 120.427 421.555C115.798 409.704 102.456 403.856 90.626 408.494C78.7962 413.131 72.9586 426.497 77.5876 438.348C82.2165 450.199 95.559 456.047 107.389 451.41Z" fill="#333333"/>
<path d="M242.39 122.716C242.39 123.421 243.099 123.904 243.755 123.647L267.95 114.163C268.553 113.926 269.234 114.225 269.47 114.829L309.276 216.741C309.512 217.345 310.193 217.644 310.796 217.407L345.442 203.827C346.045 203.59 346.342 202.909 346.106 202.304L294.393 69.9095C294.157 69.3053 293.477 69.007 292.874 69.2435L243.025 88.7836C242.642 88.9338 242.39 89.3032 242.39 89.7147V122.716Z" fill="#333333"/>
</svg>
