<svg width="772" height="271" viewBox="0 0 772 271" fill="none" xmlns="http://www.w3.org/2000/svg">
<g clip-path="url(#clip0_35_6)">
<path d="M-222 -487.033L1290.95 -1083L1589.55 -324.967L76.5972 271L-222 -487.033Z" fill="#007A3D"/>
<path fill-rule="evenodd" clip-rule="evenodd" d="M131.243 132.666C131.128 132.536 130.944 132.492 130.783 132.555L112.211 139.846C112.05 139.91 111.945 140.068 111.949 140.242L112.146 149.258C112.15 149.432 112.045 149.59 111.883 149.654L99.6603 154.453C99.3891 154.559 99.0962 154.359 99.0962 154.066L99.0918 100.166C99.0918 99.995 99.1961 99.8417 99.3546 99.7794L113.271 94.3157C113.429 94.2534 113.61 94.2951 113.725 94.4205L150.179 134.01C150.377 134.225 150.297 134.572 150.026 134.678L137.658 139.534C137.496 139.598 137.312 139.553 137.197 139.423L131.243 132.666ZM123.807 124.991C124.075 124.886 124.157 124.546 123.966 124.33L111.981 110.724C111.725 110.433 111.248 110.622 111.258 111.009L111.725 129.137C111.732 129.425 112.022 129.618 112.289 129.513L123.807 124.991Z" fill="white"/>
<path d="M224.082 51.4719C224.125 51.1581 223.816 50.9136 223.522 51.0291L210.413 56.1759C210.267 56.2333 210.165 56.3689 210.152 56.5259L208.161 79.207C208.131 79.5481 207.725 79.708 207.472 79.4786L190.598 64.2019C190.481 64.0966 190.316 64.0664 190.17 64.1237L176.914 69.328C176.62 69.4434 176.559 69.8336 176.802 70.0348L206.305 94.3724C206.36 94.4174 206.402 94.4757 206.428 94.5417L212.362 109.759C212.445 109.972 212.685 110.077 212.898 109.994L224.6 105.399C224.813 105.316 224.917 105.075 224.834 104.862L218.9 89.6448C218.874 89.5788 218.866 89.5073 218.875 89.4371L224.082 51.4719Z" fill="white"/>
<path d="M129.474 98.8973C129.474 99.6021 130.184 100.086 130.84 99.8281L138.485 96.8267C138.697 96.7432 138.937 96.8485 139.02 97.0619L153.052 133.045C153.136 133.258 153.376 133.363 153.588 133.28L165.801 128.485C166.014 128.401 166.119 128.161 166.035 127.947L147.806 81.2019C147.723 80.9886 147.483 80.8833 147.27 80.9668L130.109 87.7047C129.726 87.855 129.474 88.2243 129.474 88.6355V98.8973Z" fill="white"/>
<path d="M109.175 181.706C107.583 177.623 107.034 173.725 107.53 170.014C108.073 166.283 109.541 163.001 111.933 160.167C114.373 157.315 117.567 155.114 121.514 153.565C126.568 151.58 131.284 151.217 135.66 152.475C139.935 153.673 143.494 156.289 146.336 160.323C146.489 160.54 146.395 160.842 146.148 160.939L133.757 165.804C133.596 165.867 133.413 165.823 133.294 165.696C131.055 163.305 128.393 162.715 125.305 163.927C123.043 164.816 121.576 166.393 120.906 168.658C120.217 170.877 120.494 173.582 121.739 176.773C122.983 179.964 124.618 182.164 126.643 183.371C128.65 184.531 130.784 184.667 133.047 183.779C136.134 182.567 137.691 180.32 137.718 177.04C137.719 176.866 137.823 176.708 137.984 176.645L150.374 171.781C150.621 171.684 150.895 171.843 150.928 172.108C151.533 176.915 150.681 181.235 148.37 185.068C145.977 189.038 142.278 192.006 137.271 193.971C133.324 195.521 129.49 196.08 125.769 195.647C122.095 195.195 118.798 193.784 115.875 191.414C113.001 189.025 110.767 185.789 109.175 181.706Z" fill="white"/>
<path fill-rule="evenodd" clip-rule="evenodd" d="M178.679 177.714C174.732 179.264 170.85 179.841 167.032 179.446C163.263 179.032 159.868 177.659 156.85 175.326C153.879 172.975 151.598 169.758 150.005 165.675C148.431 161.639 147.964 157.737 148.604 153.968C149.225 150.153 150.804 146.8 153.341 143.91C155.877 141.02 159.119 138.8 163.066 137.25C167.014 135.701 170.896 135.123 174.714 135.519C178.531 135.914 181.959 137.301 184.996 139.68C188.014 142.012 190.311 145.197 191.885 149.233C193.459 153.269 193.911 157.204 193.241 161.038C192.602 164.807 190.99 168.146 188.405 171.054C185.868 173.944 182.627 176.164 178.679 177.714ZM174.616 167.295C176.975 166.369 178.643 164.74 179.621 162.408C180.647 160.057 180.547 157.31 179.321 154.165C178.095 151.021 176.334 148.925 174.038 147.879C171.791 146.813 169.488 146.743 167.129 147.669C164.722 148.614 163.054 150.243 162.124 152.556C161.176 154.822 161.325 157.551 162.569 160.742C163.795 163.887 165.508 166.001 167.707 167.086C169.955 168.152 172.258 168.221 174.616 167.295Z" fill="white"/>
<path d="M227.824 112.92C227.741 112.707 227.501 112.602 227.288 112.685L215.711 117.231C215.498 117.314 215.394 117.555 215.477 117.768L223.644 138.711C224.669 141.34 224.767 143.655 223.938 145.658C223.11 147.661 221.492 149.135 219.085 150.08C216.726 151.006 214.565 151.016 212.602 150.109C210.639 149.202 209.145 147.435 208.12 144.807L199.952 123.863C199.869 123.65 199.629 123.545 199.417 123.628L187.912 128.145C187.699 128.229 187.594 128.469 187.677 128.683L196.476 151.245C197.812 154.671 199.624 157.396 201.912 159.42C204.2 161.444 206.789 162.673 209.678 163.108C212.549 163.496 215.525 163.085 218.606 161.876C221.206 160.855 223.363 159.413 225.078 157.549C226.5 155.976 227.534 154.305 228.178 152.535C228.316 152.157 228.877 152.131 229.023 152.506L230.494 156.276C230.577 156.489 230.817 156.594 231.029 156.511L242.607 151.966C242.819 151.882 242.924 151.641 242.841 151.428L227.824 112.92Z" fill="white"/>
<path d="M248.059 110.616C248.208 110.998 248.778 110.959 248.896 110.567C249.548 108.379 250.581 106.42 251.993 104.69C253.584 102.676 255.616 101.149 258.089 100.11C258.3 100.022 258.54 100.128 258.623 100.341L263.291 112.31C263.374 112.523 263.269 112.764 263.056 112.847L260.048 114.029C256.967 115.238 254.913 116.802 253.885 118.721C252.838 120.593 252.947 123.148 254.209 126.386L261.169 144.232C261.252 144.446 261.147 144.686 260.934 144.77L249.357 149.315C249.145 149.399 248.905 149.293 248.822 149.08L233.805 110.572C233.721 110.359 233.826 110.118 234.039 110.035L245.616 105.489C245.829 105.406 246.069 105.511 246.152 105.724L248.059 110.616Z" fill="white"/>
<path d="M283.506 134.528C286.708 134.624 290.065 133.982 293.579 132.602C296.853 131.317 299.516 129.676 301.568 127.68C303.668 125.665 305.021 123.51 305.625 121.217C306.259 118.857 306.128 116.528 305.231 114.228C304.121 111.525 302.533 109.659 300.467 108.631C298.431 107.536 296.336 107.005 294.185 107.039C292.014 107.025 289.291 107.228 286.013 107.649C283.194 108.107 281.049 108.299 279.578 108.228C278.155 108.137 277.224 107.529 276.784 106.402C276.418 105.464 276.52 104.585 277.089 103.766C277.639 102.901 278.637 102.185 280.081 101.618C281.766 100.956 283.269 100.826 284.591 101.227C285.848 101.577 286.833 102.308 287.546 103.419C287.657 103.593 287.874 103.672 288.065 103.597L298.711 99.4169C298.94 99.327 299.041 99.0573 298.922 98.8413C296.922 95.2012 294.047 92.7603 290.297 91.5186C286.457 90.2122 282.01 90.5512 276.955 92.5356C273.538 93.8775 270.788 95.5795 268.706 97.6417C266.671 99.685 265.371 101.9 264.803 104.288C264.265 106.61 264.435 108.897 265.314 111.149C266.357 113.824 267.888 115.686 269.906 116.733C271.906 117.734 274.015 118.232 276.233 118.226C278.433 118.174 281.106 117.91 284.25 117.433C287.202 117.032 289.389 116.876 290.812 116.967C292.217 117.011 293.139 117.596 293.578 118.722C293.944 119.661 293.813 120.605 293.185 121.555C292.586 122.44 291.516 123.184 289.976 123.789C288.291 124.451 286.706 124.586 285.222 124.195C283.864 123.837 282.845 123.098 282.164 121.977C282.054 121.795 281.833 121.71 281.636 121.787L270.195 126.279C269.97 126.367 269.868 126.629 269.979 126.843C271.158 129.114 272.879 130.93 275.141 132.292C277.516 133.687 280.305 134.432 283.506 134.528Z" fill="white"/>
<path fill-rule="evenodd" clip-rule="evenodd" d="M344.418 88.6147C344.816 89.6358 345.17 90.7186 345.48 91.8634C345.535 92.0663 345.427 92.2772 345.232 92.3538L318.047 103.027C317.823 103.115 317.72 103.377 317.832 103.592C318.952 105.733 320.411 107.165 322.209 107.887C324.148 108.587 326.152 108.531 328.222 107.718C331.213 106.544 332.853 104.523 333.143 101.655C333.159 101.495 333.26 101.356 333.409 101.298L345.808 96.4298C346.06 96.3308 346.338 96.4979 346.362 96.7687C346.597 99.4313 346.257 102.058 345.342 104.649C344.415 107.394 342.856 109.873 340.666 112.086C338.476 114.299 335.744 116.048 332.471 117.333C328.524 118.883 324.689 119.441 320.968 119.008C317.247 118.575 313.925 117.174 311.002 114.803C308.08 112.433 305.822 109.207 304.23 105.124C302.638 101.041 302.089 97.1436 302.584 93.4316C303.128 89.7008 304.62 86.4093 307.06 83.5571C309.5 80.705 312.718 78.4946 316.713 76.9259C320.612 75.395 324.389 74.8321 328.044 75.2371C331.699 75.642 334.946 76.9921 337.783 79.2872C340.669 81.5634 342.881 84.6726 344.418 88.6147ZM330.162 90.5592C330.374 90.4757 330.48 90.2346 330.388 90.0253C329.567 88.1743 328.258 86.9429 326.459 86.3309C324.539 85.6777 322.496 85.7763 320.33 86.6268C318.26 87.4395 316.732 88.7159 315.745 90.4562C314.872 92.0574 314.624 93.9051 315 95.9993C315.045 96.2499 315.308 96.3909 315.545 96.2981L330.162 90.5592Z" fill="white"/>
<path d="M362.487 103.518C365.689 103.614 369.046 102.973 372.56 101.593C375.834 100.308 378.496 98.667 380.549 96.6707C382.649 94.6554 384.002 92.501 384.606 90.2074C385.24 87.8479 385.109 85.5183 384.212 83.2188C383.102 80.5157 381.514 78.6499 379.448 77.6212C377.412 76.5267 375.317 75.9962 373.165 76.0293C370.995 76.0155 368.272 76.219 364.994 76.6399C362.175 77.0973 360.03 77.2901 358.559 77.2184C357.136 77.1277 356.205 76.5191 355.765 75.3928C355.399 74.4542 355.501 73.5756 356.07 72.757C356.62 71.8914 357.618 71.1751 359.062 70.6082C360.747 69.9467 362.25 69.8164 363.572 70.2173C364.829 70.5678 365.814 71.2987 366.527 72.4099C366.638 72.5836 366.855 72.6626 367.046 72.5873L377.692 68.4076C377.921 68.3177 378.022 68.0479 377.903 67.8319C375.903 64.1918 373.028 61.7509 369.278 60.5092C365.438 59.2028 360.991 59.5418 355.936 61.5262C352.519 62.8681 349.769 64.5702 347.686 66.6323C345.652 68.6756 344.351 70.8909 343.784 73.2784C343.246 75.6001 343.416 77.8873 344.295 80.1399C345.338 82.8149 346.869 84.6762 348.887 85.7238C350.887 86.7244 352.996 87.2222 355.214 87.217C357.414 87.165 360.087 86.9005 363.231 86.4236C366.183 86.0222 368.37 85.8668 369.793 85.9575C371.198 86.0013 372.12 86.5863 372.559 87.7126C372.925 88.6512 372.794 89.5958 372.166 90.546C371.567 91.4305 370.497 92.1751 368.957 92.7799C367.272 93.4414 365.687 93.5765 364.203 93.1853C362.845 92.8277 361.826 92.0883 361.145 90.9673C361.035 90.7861 360.813 90.7008 360.617 90.7781L349.175 95.2701C348.951 95.3581 348.849 95.6193 348.96 95.8335C350.139 98.1044 351.86 99.921 354.122 101.283C356.497 102.677 359.286 103.422 362.487 103.518Z" fill="white"/>
<path d="M108.065 205.438C112.235 203.801 114.293 199.082 112.661 194.898C111.029 190.713 106.326 188.649 102.156 190.286C97.9857 191.923 95.9279 196.643 97.5596 200.827C99.1914 205.011 103.895 207.076 108.065 205.438Z" fill="white"/>
<path d="M155.654 88.4357C155.654 89.1404 156.364 89.624 157.02 89.3665L164.664 86.365C164.877 86.2815 165.117 86.3868 165.2 86.6002L179.232 122.583C179.315 122.796 179.555 122.901 179.768 122.818L191.981 118.023C192.193 117.94 192.298 117.699 192.215 117.486L173.986 70.7402C173.903 70.5269 173.663 70.4216 173.45 70.5051L156.289 77.243C155.906 77.3933 155.654 77.7626 155.654 78.1738V88.4357Z" fill="white"/>
</g>
<defs>
<clipPath id="clip0_35_6">
<rect width="772" height="271" fill="white"/>
</clipPath>
</defs>
</svg>
