<svg width="719" height="253" viewBox="0 0 719 253" fill="none" xmlns="http://www.w3.org/2000/svg">
<g clip-path="url(#clip0_35_6)">
<path d="M-222 -505.033L1290.95 -1101L1589.55 -342.967L76.5972 253L-222 -505.033Z" fill="#008040"/>
<path fill-rule="evenodd" clip-rule="evenodd" d="M131.243 114.666C131.128 114.536 130.944 114.492 130.783 114.555L112.211 121.846C112.05 121.91 111.945 122.068 111.949 122.242L112.146 131.258C112.15 131.432 112.045 131.59 111.883 131.654L99.6603 136.453C99.3891 136.559 99.0962 136.359 99.0962 136.066L99.0918 82.1658C99.0918 81.995 99.1961 81.8417 99.3546 81.7794L113.271 76.3157C113.429 76.2534 113.61 76.2951 113.725 76.4205L150.179 116.01C150.377 116.225 150.297 116.572 150.026 116.678L137.658 121.534C137.496 121.598 137.312 121.553 137.197 121.423L131.243 114.666ZM123.807 106.991C124.075 106.886 124.157 106.546 123.966 106.33L111.981 92.7236C111.725 92.4334 111.248 92.6219 111.258 93.0092L111.725 111.137C111.732 111.425 112.022 111.618 112.289 111.513L123.807 106.991Z" fill="white"/>
<path d="M224.082 33.4719C224.125 33.1581 223.816 32.9136 223.522 33.0291L210.413 38.1759C210.267 38.2333 210.165 38.3689 210.152 38.5259L208.161 61.207C208.131 61.5481 207.725 61.708 207.472 61.4786L190.598 46.2019C190.481 46.0966 190.316 46.0664 190.17 46.1237L176.914 51.328C176.62 51.4434 176.559 51.8336 176.802 52.0348L206.305 76.3724C206.36 76.4174 206.402 76.4757 206.428 76.5417L212.362 91.7587C212.445 91.972 212.685 92.0773 212.898 91.9938L224.6 87.3993C224.813 87.3158 224.917 87.0752 224.834 86.8618L218.9 71.6448C218.874 71.5788 218.866 71.5073 218.875 71.4371L224.082 33.4719Z" fill="white"/>
<path d="M129.474 80.8973C129.474 81.6021 130.184 82.0857 130.84 81.8281L138.485 78.8267C138.697 78.7432 138.937 78.8485 139.02 79.0619L153.052 115.045C153.136 115.258 153.376 115.363 153.588 115.28L165.801 110.485C166.014 110.401 166.119 110.161 166.035 109.947L147.806 63.2019C147.723 62.9886 147.483 62.8833 147.27 62.9668L130.109 69.7047C129.726 69.855 129.474 70.2243 129.474 70.6355V80.8973Z" fill="white"/>
<path d="M109.175 163.706C107.583 159.623 107.034 155.725 107.53 152.014C108.073 148.283 109.541 145.001 111.933 142.167C114.373 139.315 117.567 137.114 121.514 135.565C126.568 133.58 131.284 133.217 135.66 134.475C139.935 135.673 143.494 138.289 146.336 142.323C146.489 142.54 146.395 142.842 146.148 142.939L133.757 147.804C133.596 147.867 133.413 147.823 133.294 147.696C131.055 145.305 128.393 144.715 125.305 145.927C123.043 146.816 121.576 148.393 120.906 150.658C120.217 152.877 120.494 155.582 121.739 158.773C122.983 161.964 124.618 164.164 126.643 165.371C128.65 166.531 130.784 166.667 133.047 165.779C136.134 164.567 137.691 162.32 137.718 159.04C137.719 158.866 137.823 158.708 137.984 158.645L150.374 153.781C150.621 153.684 150.895 153.843 150.928 154.108C151.533 158.915 150.681 163.235 148.37 167.068C145.977 171.038 142.278 174.006 137.271 175.971C133.324 177.521 129.49 178.08 125.769 177.647C122.095 177.195 118.798 175.784 115.875 173.414C113.001 171.025 110.767 167.789 109.175 163.706Z" fill="white"/>
<path fill-rule="evenodd" clip-rule="evenodd" d="M178.679 159.714C174.732 161.264 170.85 161.841 167.032 161.446C163.263 161.032 159.868 159.659 156.85 157.326C153.879 154.975 151.598 151.758 150.005 147.675C148.431 143.639 147.964 139.737 148.604 135.968C149.225 132.153 150.804 128.8 153.341 125.91C155.877 123.02 159.119 120.8 163.066 119.25C167.014 117.701 170.896 117.123 174.714 117.519C178.531 117.914 181.959 119.301 184.996 121.68C188.014 124.012 190.311 127.197 191.885 131.233C193.459 135.269 193.911 139.204 193.241 143.038C192.602 146.807 190.99 150.146 188.405 153.054C185.868 155.944 182.627 158.164 178.679 159.714ZM174.616 149.295C176.975 148.369 178.643 146.74 179.621 144.408C180.647 142.057 180.547 139.31 179.321 136.165C178.095 133.021 176.334 130.925 174.038 129.879C171.791 128.813 169.488 128.743 167.129 129.669C164.722 130.614 163.054 132.243 162.124 134.556C161.176 136.822 161.325 139.551 162.569 142.742C163.795 145.887 165.508 148.001 167.707 149.086C169.955 150.152 172.258 150.221 174.616 149.295Z" fill="white"/>
<path d="M227.824 94.9204C227.741 94.707 227.501 94.6017 227.288 94.6852L215.711 99.2306C215.498 99.3141 215.394 99.5547 215.477 99.7681L223.644 120.711C224.669 123.34 224.767 125.655 223.938 127.658C223.11 129.661 221.492 131.135 219.085 132.08C216.726 133.006 214.565 133.016 212.602 132.109C210.639 131.202 209.145 129.435 208.12 126.807L199.952 105.863C199.869 105.65 199.629 105.545 199.417 105.628L187.912 110.145C187.699 110.229 187.594 110.469 187.677 110.683L196.476 133.245C197.812 136.671 199.624 139.396 201.912 141.42C204.2 143.444 206.789 144.673 209.678 145.108C212.549 145.496 215.525 145.085 218.606 143.876C221.206 142.855 223.363 141.413 225.078 139.549C226.5 137.976 227.534 136.305 228.178 134.535C228.316 134.157 228.877 134.131 229.023 134.506L230.494 138.276C230.577 138.489 230.817 138.594 231.029 138.511L242.607 133.966C242.819 133.882 242.924 133.641 242.841 133.428L227.824 94.9204Z" fill="white"/>
<path d="M248.059 92.6162C248.208 92.9978 248.778 92.9591 248.896 92.5665C249.548 90.3791 250.581 88.4204 251.993 86.6903C253.584 84.6759 255.616 83.1491 258.089 82.1104C258.3 82.0219 258.54 82.1276 258.623 82.3409L263.291 94.3099C263.374 94.5233 263.269 94.7638 263.056 94.8473L260.048 96.0286C256.967 97.2381 254.913 98.8023 253.885 100.721C252.838 102.593 252.947 105.148 254.209 108.386L261.169 126.232C261.252 126.446 261.147 126.686 260.934 126.77L249.357 131.315C249.145 131.399 248.905 131.293 248.822 131.08L233.805 92.5723C233.721 92.3589 233.826 92.1183 234.039 92.0348L245.616 87.4894C245.829 87.4059 246.069 87.5111 246.152 87.7245L248.059 92.6162Z" fill="white"/>
<path d="M283.506 116.528C286.708 116.624 290.065 115.982 293.579 114.602C296.853 113.317 299.516 111.676 301.568 109.68C303.668 107.665 305.021 105.51 305.625 103.217C306.259 100.857 306.128 98.5277 305.231 96.2281C304.121 93.5251 302.533 91.6593 300.467 90.6306C298.431 89.5361 296.336 89.0054 294.185 89.0386C292.014 89.0248 289.291 89.2283 286.013 89.6492C283.194 90.1066 281.049 90.2994 279.578 90.2277C278.155 90.137 277.224 89.5286 276.784 88.4022C276.418 87.4636 276.52 86.585 277.089 85.7664C277.639 84.9008 278.637 84.1845 280.081 83.6176C281.766 82.9561 283.269 82.8258 284.591 83.2267C285.848 83.5772 286.833 84.3081 287.546 85.4193C287.657 85.593 287.874 85.6718 288.065 85.5966L298.711 81.4169C298.94 81.327 299.041 81.0573 298.922 80.8413C296.922 77.2012 294.047 74.7603 290.297 73.5186C286.457 72.2122 282.01 72.5512 276.955 74.5356C273.538 75.8775 270.788 77.5795 268.706 79.6417C266.671 81.685 265.371 83.9003 264.803 86.2878C264.265 88.6095 264.435 90.8966 265.314 93.1493C266.357 95.8243 267.888 97.6856 269.906 98.7332C271.906 99.7338 274.015 100.232 276.233 100.226C278.433 100.174 281.106 99.9098 284.25 99.4329C287.202 99.0315 289.389 98.8762 290.812 98.9669C292.217 99.0107 293.139 99.5957 293.578 100.722C293.944 101.661 293.813 102.605 293.185 103.555C292.586 104.44 291.516 105.184 289.976 105.789C288.291 106.451 286.706 106.586 285.222 106.195C283.864 105.837 282.845 105.098 282.164 103.977C282.054 103.795 281.833 103.71 281.636 103.787L270.195 108.279C269.97 108.367 269.868 108.629 269.979 108.843C271.158 111.114 272.879 112.93 275.141 114.292C277.516 115.687 280.305 116.432 283.506 116.528Z" fill="white"/>
<path fill-rule="evenodd" clip-rule="evenodd" d="M344.418 70.6147C344.816 71.6358 345.17 72.7186 345.48 73.8634C345.535 74.0663 345.427 74.2772 345.232 74.3538L318.047 85.0271C317.823 85.1153 317.72 85.3774 317.832 85.5917C318.952 87.7333 320.411 89.165 322.209 89.8868C324.148 90.587 326.152 90.5307 328.222 89.718C331.213 88.5438 332.853 86.5226 333.143 83.6545C333.159 83.4954 333.26 83.3564 333.409 83.2981L345.808 78.4298C346.06 78.3308 346.338 78.4979 346.362 78.7687C346.597 81.4313 346.257 84.058 345.342 86.6489C344.415 89.3942 342.856 91.8732 340.666 94.0859C338.476 96.2987 335.744 98.0477 332.471 99.3329C328.524 100.883 324.689 101.441 320.968 101.008C317.247 100.575 313.925 99.1735 311.002 96.8035C308.08 94.4334 305.822 91.2068 304.23 87.1239C302.638 83.041 302.089 79.1436 302.584 75.4316C303.128 71.7008 304.62 68.4093 307.06 65.5571C309.5 62.705 312.718 60.4946 316.713 58.9259C320.612 57.395 324.389 56.8321 328.044 57.2371C331.699 57.642 334.946 58.9921 337.783 61.2872C340.669 63.5634 342.881 66.6726 344.418 70.6147ZM330.162 72.5592C330.374 72.4757 330.48 72.2346 330.388 72.0253C329.567 70.1743 328.258 68.9429 326.459 68.3309C324.539 67.6777 322.496 67.7763 320.33 68.6268C318.26 69.4395 316.732 70.7159 315.745 72.4562C314.872 74.0574 314.624 75.9051 315 77.9993C315.045 78.2499 315.308 78.3909 315.545 78.2981L330.162 72.5592Z" fill="white"/>
<path d="M362.487 85.5184C365.689 85.6144 369.046 84.9726 372.56 83.5929C375.834 82.3077 378.496 80.667 380.549 78.6707C382.649 76.6554 384.002 74.501 384.606 72.2074C385.24 69.8479 385.109 67.5183 384.212 65.2188C383.102 62.5157 381.514 60.6499 379.448 59.6212C377.412 58.5267 375.317 57.9962 373.165 58.0293C370.995 58.0155 368.272 58.219 364.994 58.6399C362.175 59.0973 360.03 59.2901 358.559 59.2184C357.136 59.1277 356.205 58.5191 355.765 57.3928C355.399 56.4542 355.501 55.5756 356.07 54.757C356.62 53.8914 357.618 53.1751 359.062 52.6082C360.747 51.9467 362.25 51.8164 363.572 52.2173C364.829 52.5678 365.814 53.2987 366.527 54.4099C366.638 54.5836 366.855 54.6626 367.046 54.5873L377.692 50.4076C377.921 50.3177 378.022 50.0479 377.903 49.8319C375.903 46.1918 373.028 43.7509 369.278 42.5092C365.438 41.2028 360.991 41.5418 355.936 43.5262C352.519 44.8681 349.769 46.5702 347.686 48.6323C345.652 50.6756 344.351 52.8909 343.784 55.2784C343.246 57.6001 343.416 59.8873 344.295 62.1399C345.338 64.8149 346.869 66.6762 348.887 67.7238C350.887 68.7244 352.996 69.2222 355.214 69.217C357.414 69.165 360.087 68.9005 363.231 68.4236C366.183 68.0222 368.37 67.8668 369.793 67.9575C371.198 68.0013 372.12 68.5863 372.559 69.7126C372.925 70.6512 372.794 71.5958 372.166 72.546C371.567 73.4305 370.497 74.1751 368.957 74.7799C367.272 75.4414 365.687 75.5765 364.203 75.1853C362.845 74.8277 361.826 74.0883 361.145 72.9673C361.035 72.7861 360.813 72.7008 360.617 72.7781L349.175 77.2701C348.951 77.3581 348.849 77.6193 348.96 77.8335C350.139 80.1044 351.86 81.921 354.122 83.2831C356.497 84.6774 359.286 85.4224 362.487 85.5184Z" fill="white"/>
<path d="M108.065 187.438C112.235 185.801 114.293 181.082 112.661 176.898C111.029 172.713 106.326 170.649 102.156 172.286C97.9857 173.923 95.9279 178.643 97.5596 182.827C99.1914 187.011 103.895 189.076 108.065 187.438Z" fill="white"/>
<path d="M155.654 70.4357C155.654 71.1404 156.364 71.624 157.02 71.3665L164.664 68.365C164.877 68.2815 165.117 68.3868 165.2 68.6002L179.232 104.583C179.315 104.796 179.555 104.901 179.768 104.818L191.981 100.023C192.193 99.9396 192.298 99.699 192.215 99.4856L173.986 52.7402C173.903 52.5269 173.663 52.4216 173.45 52.5051L156.289 59.243C155.906 59.3933 155.654 59.7626 155.654 60.1738V70.4357Z" fill="white"/>
</g>
<defs>
<clipPath id="clip0_35_6">
<rect width="719" height="253" fill="white"/>
</clipPath>
</defs>
</svg>
